<svg width="213" height="44" viewBox="0 0 213 44" fill="none" xmlns="http://www.w3.org/2000/svg">
<path d="M62.4633 30.4103C60.2542 30.4103 58.5079 29.6634 57.2245 28.1696C55.9411 26.6758 55.2994 24.7507 55.2994 22.3943C55.2994 20.0799 55.9622 18.1654 57.2876 16.6505C58.6131 15.1357 60.3594 14.3783 62.5264 14.3783C63.5995 14.3783 64.5567 14.6097 65.3983 15.0726C66.2399 15.5354 66.8711 16.1666 67.2919 16.9661V14.7885H72.0888V30H67.2919V27.854C66.8711 28.6114 66.2189 29.2321 65.3352 29.716C64.4726 30.1788 63.5153 30.4103 62.4633 30.4103ZM63.8519 26.4023C65.0091 26.4023 65.9033 26.0236 66.5344 25.2661C67.1656 24.5087 67.4812 23.5514 67.4812 22.3943C67.4812 21.2581 67.1656 20.3114 66.5344 19.554C65.9033 18.7965 65.0091 18.4178 63.8519 18.4178C62.7579 18.4178 61.8742 18.786 61.201 19.5224C60.5487 20.2588 60.2226 21.2161 60.2226 22.3943C60.2226 23.5725 60.5487 24.5403 61.201 25.2977C61.8742 26.0341 62.7579 26.4023 63.8519 26.4023ZM74.204 30V14.7885H79.0326V16.9977C79.9373 15.2514 81.5783 14.3783 83.9558 14.3783C87.6587 14.3783 89.5102 16.4506 89.5102 20.5954V30H84.6501V22.1734C84.6501 20.8689 84.4397 19.9221 84.0189 19.333C83.6192 18.7439 82.9354 18.4494 81.9676 18.4494C80.0109 18.4494 79.0326 19.6486 79.0326 22.0471V30H74.204ZM98.7387 30.4103C96.1509 30.4103 94.089 29.6634 92.5532 28.1696C91.0383 26.6758 90.2809 24.7507 90.2809 22.3943C90.2809 20.0379 91.0383 18.1128 92.5532 16.619C94.089 15.1252 96.1509 14.3783 98.7387 14.3783C101.306 14.3783 103.346 15.1252 104.861 16.619C106.397 18.1128 107.165 20.0379 107.165 22.3943C107.165 24.7507 106.397 26.6758 104.861 28.1696C103.346 29.6634 101.306 30.4103 98.7387 30.4103ZM98.7387 26.3391C99.8538 26.3391 100.737 25.9815 101.39 25.2661C102.042 24.5298 102.368 23.5725 102.368 22.3943C102.368 21.2161 102.042 20.2693 101.39 19.554C100.737 18.8176 99.8538 18.4494 98.7387 18.4494C97.6026 18.4494 96.7084 18.8176 96.0562 19.554C95.425 20.2693 95.1095 21.2161 95.1095 22.3943C95.1095 23.5725 95.425 24.5298 96.0562 25.2661C96.7084 25.9815 97.6026 26.3391 98.7387 26.3391ZM108.047 30V14.7885H112.876V16.9977C113.781 15.2514 115.422 14.3783 117.799 14.3783C121.502 14.3783 123.354 16.4506 123.354 20.5954V30H118.493V22.1734C118.493 20.8689 118.283 19.9221 117.862 19.333C117.463 18.7439 116.779 18.4494 115.811 18.4494C113.854 18.4494 112.876 19.6486 112.876 22.0471V30H108.047ZM129.868 12.5794C129.3 13.1475 128.585 13.4315 127.722 13.4315C126.859 13.4315 126.144 13.1475 125.576 12.5794C125.029 12.0113 124.755 11.317 124.755 10.4965C124.755 9.65493 125.029 8.95011 125.576 8.38204C126.144 7.81398 126.859 7.52995 127.722 7.52995C128.585 7.52995 129.3 7.8245 129.868 8.4136C130.436 8.98167 130.72 9.67597 130.72 10.4965C130.72 11.317 130.436 12.0113 129.868 12.5794ZM125.324 30V14.7885H130.121V30H125.324ZM132.244 30V14.7885H137.073V16.9977C137.41 16.2192 137.957 15.588 138.714 15.1041C139.492 14.6202 140.397 14.3783 141.428 14.3783C143.827 14.3783 145.415 15.3145 146.193 17.187C146.614 16.3454 147.256 15.6722 148.119 15.1672C148.981 14.6413 149.96 14.3783 151.054 14.3783C154.651 14.3783 156.45 16.4401 156.45 20.5638V30H151.59V21.4475C151.59 19.4488 150.833 18.4494 149.318 18.4494C147.614 18.4494 146.762 19.6907 146.762 22.1734V30H141.901V21.4159C141.901 19.4382 141.155 18.4494 139.661 18.4494C138.819 18.4494 138.177 18.7334 137.736 19.3015C137.294 19.8485 137.073 20.8058 137.073 22.1734V30H132.244ZM163.825 30.4103C162.016 30.4103 160.627 29.8738 159.66 28.8008C158.692 27.7067 158.208 26.1708 158.208 24.1931V14.7885H163.099V23.1201C163.099 25.2661 163.941 26.3391 165.624 26.3391C167.581 26.3391 168.559 25.2135 168.559 22.9623V14.7885H173.356V30H168.559V27.8224C167.655 29.5477 166.077 30.4103 163.825 30.4103ZM181.548 30.4103C179.381 30.4103 177.634 29.9579 176.309 29.0532C175.004 28.1275 174.352 26.9177 174.352 25.4239H179.149C179.149 25.9499 179.381 26.3812 179.844 26.7179C180.306 27.0334 180.906 27.1912 181.642 27.1912C182.168 27.1912 182.589 27.0755 182.905 26.8441C183.241 26.5916 183.41 26.2445 183.41 25.8026C183.41 25.445 183.294 25.1609 183.063 24.9506C182.831 24.7191 182.4 24.5298 181.769 24.3825L178.581 23.5935C176.035 22.9623 174.763 21.4791 174.763 19.1437C174.763 17.713 175.352 16.5664 176.53 15.7037C177.729 14.8201 179.307 14.3783 181.264 14.3783C183.41 14.3783 185.072 14.7885 186.25 15.6091C187.449 16.4086 188.049 17.5657 188.049 19.0806H183.283C183.283 17.9865 182.589 17.4395 181.201 17.4395C180.675 17.4395 180.254 17.5552 179.938 17.7866C179.623 18.0181 179.465 18.3126 179.465 18.6703C179.465 19.3436 180.022 19.8275 181.137 20.122L184.356 21.0057C186.923 21.6789 188.207 23.1412 188.207 25.3924C188.207 26.9493 187.607 28.1801 186.408 29.0848C185.209 29.9684 183.589 30.4103 181.548 30.4103ZM208.138 14.7885H212.935V36.3118H208.138V27.854C207.717 28.6114 207.065 29.2321 206.181 29.716C205.318 30.1788 204.361 30.4103 203.309 30.4103C201.1 30.4103 199.354 29.6634 198.07 28.1696C196.787 26.6758 196.145 24.7507 196.145 22.3943C196.145 20.0799 196.808 18.1654 198.134 16.6505C199.459 15.1357 201.205 14.3783 203.372 14.3783C204.445 14.3783 205.403 14.6097 206.244 15.0726C207.086 15.5354 207.717 16.1666 208.138 16.9661V14.7885ZM204.698 26.4023C205.855 26.4023 206.749 26.0236 207.38 25.2661C208.011 24.5087 208.327 23.5514 208.327 22.3943C208.327 21.2581 208.011 20.3114 207.38 19.554C206.749 18.7965 205.855 18.4178 204.698 18.4178C203.604 18.4178 202.72 18.786 202.047 19.5224C201.395 20.2588 201.068 21.2161 201.068 22.3943C201.068 23.5725 201.395 24.5403 202.047 25.2977C202.72 26.0341 203.604 26.4023 204.698 26.4023Z" fill="#0D114F"/>
<path d="M194.456 29.4004C193.867 30.0105 193.131 30.3156 192.247 30.3156C191.363 30.3156 190.616 30.0105 190.006 29.4004C189.417 28.7902 189.123 28.0644 189.123 27.2228C189.123 26.3602 189.417 25.6343 190.006 25.0452C190.616 24.4351 191.363 24.13 192.247 24.13C193.131 24.13 193.867 24.4351 194.456 25.0452C195.066 25.6343 195.371 26.3602 195.371 27.2228C195.371 28.0644 195.066 28.7902 194.456 29.4004Z" fill="url(#paint0_linear_10904_622)"/>
<rect width="43.832" height="43.832" rx="7.88976" fill="url(#paint1_linear_10904_622)"/>
<g filter="url(#filter0_di_10904_622)">
<path d="M33.258 32.4131H29.3487C29.1852 32.4131 29.0508 32.2854 29.0363 32.1226C29.0317 32.0711 29.0267 32.0211 29.0214 31.9726C28.7973 29.9298 26.5982 28.1753 24.5583 28.4238C23.0692 28.6052 21.8351 29.7293 20.3445 29.8976C19.3393 30.0111 18.4621 29.9594 17.4596 29.7629C16.5809 29.5908 15.7327 29.2757 14.952 28.8372C13.1132 27.8044 12.126 26.741 11.2107 25.1387C10.681 24.2114 10.303 23.1958 10.1655 22.1368C10.0517 21.2603 10.0589 20.4879 10.1544 19.6373C10.3004 18.3379 10.7168 17.0732 11.3964 15.956C12.3504 14.3877 13.3816 13.4126 15.0616 12.4997C15.7731 12.1131 16.5387 11.8305 17.3296 11.6568C19.3324 11.2169 20.629 11.3458 22.5759 11.956C23.6591 12.2955 24.8356 13.023 25.8362 13.9723C28.0243 16.0482 28.1911 19.3058 28.2464 22.3215C28.2516 22.601 27.996 22.8125 27.7209 22.7627C26.3696 22.5184 25.3981 22.4987 24.0703 22.7098C23.7143 22.7664 23.4214 22.398 23.5175 22.0506C23.5591 21.8998 23.5918 21.7518 23.6163 21.6059C24.0088 19.2711 22.4111 16.606 20.0547 16.3763C18.718 16.246 17.3943 16.7918 16.4138 17.8864C15.8286 18.4381 15.5049 19.3034 15.4028 20.2262C15.1383 22.6173 17.0941 24.9295 19.497 25.0439C19.9555 25.0657 20.3982 24.999 20.8505 24.8457C22.2759 24.3625 23.6654 23.6404 25.1662 23.7534C29.6812 24.0934 32.8523 26.1289 33.6866 31.9218C33.724 32.1814 33.5203 32.4131 33.258 32.4131Z" fill="#FAFAFA"/>
</g>
<defs>
<filter id="filter0_di_10904_622" x="8.44906" y="11.3964" width="26.8743" height="24.2815" filterUnits="userSpaceOnUse" color-interpolation-filters="sRGB">
<feFlood flood-opacity="0" result="BackgroundImageFix"/>
<feColorMatrix in="SourceAlpha" type="matrix" values="0 0 0 0 0 0 0 0 0 0 0 0 0 0 0 0 0 0 127 0" result="hardAlpha"/>
<feOffset dy="1.63237"/>
<feGaussianBlur stdDeviation="0.816183"/>
<feColorMatrix type="matrix" values="0 0 0 0 0 0 0 0 0 0 0 0 0 0 0 0 0 0 0.07 0"/>
<feBlend mode="normal" in2="BackgroundImageFix" result="effect1_dropShadow_10904_622"/>
<feBlend mode="normal" in="SourceGraphic" in2="effect1_dropShadow_10904_622" result="shape"/>
<feColorMatrix in="SourceAlpha" type="matrix" values="0 0 0 0 0 0 0 0 0 0 0 0 0 0 0 0 0 0 127 0" result="hardAlpha"/>
<feOffset dy="1.63237"/>
<feGaussianBlur stdDeviation="1.02023"/>
<feComposite in2="hardAlpha" operator="arithmetic" k2="-1" k3="1"/>
<feColorMatrix type="matrix" values="0 0 0 0 0.219608 0 0 0 0 0.533333 0 0 0 0 1 0 0 0 0.13 0"/>
<feBlend mode="normal" in2="shape" result="effect2_innerShadow_10904_622"/>
</filter>
<linearGradient id="paint0_linear_10904_622" x1="247.118" y1="-52.4597" x2="240.618" y2="49.1669" gradientUnits="userSpaceOnUse">
<stop stop-color="#5498FF"/>
<stop offset="0.515625" stop-color="#428EFF"/>
<stop offset="1" stop-color="#297FFF"/>
</linearGradient>
<linearGradient id="paint1_linear_10904_622" x1="52.463" y1="-66.3077" x2="19.6129" y2="48.5381" gradientUnits="userSpaceOnUse">
<stop stop-color="#5498FF"/>
<stop offset="0.515625" stop-color="#428EFF"/>
<stop offset="1" stop-color="#297FFF"/>
</linearGradient>
</defs>
</svg>
